<svg id="Layer_1" data-name="Layer 1" xmlns="http://www.w3.org/2000/svg" viewBox="0 0 66 100.8"><title>map-point</title><path d="M56.33,9.23a34.09,34.09,0,0,0-46.66,0,30.48,30.48,0,0,0,0,44.54S33,75.6,33,100.8c0-25.2,23.34-47,23.34-47A30.47,30.47,0,0,0,56.33,9.23Z" style="fill:#fff"/><path d="M47,45.52c-.64-3.27.13-6.94,0-10.28C47,31.48,46.35,27.75,46.4,24c0-3,.54-6.17-.51-9.09.07-.33.14-.66.2-1,.27-1.47-4.58-.69-5.34.65-.48.39-.72.86-.52,1.33.05.13.1.25.14.37A109.92,109.92,0,0,1,36.7,29.43c-.56,1.67-1.24,3.29-1.81,5a48.06,48.06,0,0,1-2.3-4.73c-1.93-4.8-3.66-9.66-6-14.28.27-2.14-4.48-1.92-5.42,0-1.13,2.37-1,4.76-.61,7.3a64.36,64.36,0,0,1,.53,8.55c.07,5.57.5,11.12.58,16.69a1.4,1.4,0,0,0-.12,1.92,3.9,3.9,0,0,0,.8.77c1.26,1,4.9.15,4.89-1.78,0-5.77-.44-11.53-.59-17.3,0-.56,0-1.13,0-1.69l.24.61A46.5,46.5,0,0,0,29.91,37a30.27,30.27,0,0,1,2.52,6.55,1.08,1.08,0,0,0-.33,1c-.05.25.1.41.35.5.9.77,2.58.38,3.52,0a8.31,8.31,0,0,0,1.15-.59c.49-.3,1.24-1,1-1.62L38,42.42a34.24,34.24,0,0,0,1.35-5.5,34.43,34.43,0,0,1,1.82-5.79l.21,2.6c.29,3.57.05,7.1,0,10.67a16.59,16.59,0,0,0,.31,3.45,14.36,14.36,0,0,1,.39,2.64,1.09,1.09,0,0,0,.54,2,4.67,4.67,0,0,0,3.88-1C48.21,49.91,47.41,47.48,47,45.52Z" style="fill:#6bc6b3"/></svg>